<?xml version="1.0" encoding="UTF-8"?>
<svg xmlns="http://www.w3.org/2000/svg" width="1200" height="760" viewBox="0 0 1200 760" role="img" aria-labelledby="ctrl-title ctrl-desc">
  <title id="ctrl-title">CTRL public-safe interface mockup</title>
  <desc id="ctrl-desc">A sanitized visual mockup with private data removed.</desc>
  <defs>
    <linearGradient id="ctrl-bg" x1="0" x2="1" y1="0" y2="1">
      <stop offset="0" stop-color="#10120f"/>
      <stop offset=".52" stop-color="#191d19"/>
      <stop offset="1" stop-color="#24271f"/>
    </linearGradient>
    <radialGradient id="ctrl-glow" cx=".76" cy=".14" r=".9">
      <stop offset="0" stop-color="#b7f36b" stop-opacity=".5"/>
      <stop offset=".42" stop-color="#e66a72" stop-opacity=".18"/>
      <stop offset="1" stop-color="#000" stop-opacity="0"/>
    </radialGradient>
    <filter id="ctrl-shadow" x="-20%" y="-20%" width="140%" height="140%">
      <feDropShadow dx="0" dy="18" stdDeviation="22" flood-color="#000" flood-opacity=".32"/>
    </filter>
    <style>
      .title { font: 800 42px Inter, Arial, sans-serif; fill: #f7fff7; letter-spacing: 0; }
      .sub { font: 500 18px Inter, Arial, sans-serif; fill: rgba(247,255,247,.72); letter-spacing: 0; }
      .nav { font: 700 13px Inter, Arial, sans-serif; fill: rgba(247,255,247,.56); letter-spacing: .06em; }
      .kicker { font: 800 13px Inter, Arial, sans-serif; fill: rgba(247,255,247,.68); letter-spacing: .08em; text-transform: uppercase; }
      .badge { font: 800 10px Inter, Arial, sans-serif; fill: #07110d; text-anchor: middle; letter-spacing: .04em; }
      .tiny { font: 700 11px Inter, Arial, sans-serif; fill: rgba(247,255,247,.5); letter-spacing: .06em; }
      .label { font: 700 15px Inter, Arial, sans-serif; fill: rgba(247,255,247,.76); letter-spacing: 0; }
    </style>
  </defs>
  <rect width="1200" height="760" fill="url(#ctrl-bg)"/>
  <rect width="1200" height="760" fill="url(#ctrl-glow)"/>
  <path d="M-80 690 C170 560 266 738 487 601 C661 494 765 562 918 434 C1054 321 1135 360 1260 260" fill="none" stroke="#b7f36b" stroke-width="2" opacity=".32"/>
  <path d="M-40 118 C199 214 314 56 516 180 C699 292 813 152 1020 206 C1114 231 1161 272 1240 236" fill="none" stroke="#e66a72" stroke-width="2" opacity=".26"/>
  <g filter="url(#ctrl-shadow)">
    <rect x="72" y="82" width="1056" height="596" rx="18" fill="rgba(4,10,8,.74)" stroke="rgba(255,255,255,.18)" stroke-width="1.2"/>
    <rect x="72" y="82" width="1056" height="58" rx="18" fill="rgba(255,255,255,.08)"/>
    <circle cx="104" cy="111" r="7" fill="#f06a5b"/>
    <circle cx="130" cy="111" r="7" fill="#f4c95d"/>
    <circle cx="156" cy="111" r="7" fill="#79d279"/>
    <text x="190" y="116" class="nav">PUBLIC MOCK / PRIVATE DATA REDACTED</text>
    <text x="990" y="116" class="tiny">STATIC PREVIEW</text>
    <text x="112" y="206" class="title">CTRL</text>
    <text x="114" y="240" class="sub">Private operator cockpit for approvals, queues, maintenance, and review.</text>
    
        <rect x="112" y="292" width="220" height="286" rx="10" fill="#111a17" stroke="rgba(255,255,255,.14)" stroke-width="1"/>
        <text x="130" y="322" class="kicker">triage</text>
        
              <rect x="130" y="346" width="146" height="9" rx="4.5" fill="#e66a72"/>
              <rect x="130" y="362" width="84.67999999999999" height="5" rx="2.5" fill="rgba(255,255,255,.12)"/>
              <rect x="130" y="380" width="170" height="9" rx="4.5" fill="rgba(255,255,255,.28)"/>
              <rect x="130" y="396" width="98.6" height="5" rx="2.5" fill="rgba(255,255,255,.12)"/>
              <rect x="130" y="414" width="122" height="9" rx="4.5" fill="rgba(255,255,255,.28)"/>
              <rect x="130" y="430" width="70.75999999999999" height="5" rx="2.5" fill="rgba(255,255,255,.12)"/>
              <rect x="130" y="448" width="154" height="9" rx="4.5" fill="rgba(255,255,255,.28)"/>
              <rect x="130" y="464" width="89.32" height="5" rx="2.5" fill="rgba(255,255,255,.12)"/>
        
              <rect x="130" y="540" width="78" height="22" rx="11" fill="#b7f36b" opacity=".92"/>
              <text x="169" y="555" class="badge">queue</text>
        <rect x="360" y="292" width="220" height="286" rx="10" fill="#111a17" stroke="rgba(255,255,255,.14)" stroke-width="1"/>
        <text x="378" y="322" class="kicker">approve</text>
        
              <rect x="378" y="346" width="170" height="9" rx="4.5" fill="#b7f36b"/>
              <rect x="378" y="362" width="98.6" height="5" rx="2.5" fill="rgba(255,255,255,.12)"/>
              <rect x="378" y="380" width="136" height="9" rx="4.5" fill="rgba(255,255,255,.28)"/>
              <rect x="378" y="396" width="78.88" height="5" rx="2.5" fill="rgba(255,255,255,.12)"/>
              <rect x="378" y="414" width="154" height="9" rx="4.5" fill="rgba(255,255,255,.28)"/>
              <rect x="378" y="430" width="89.32" height="5" rx="2.5" fill="rgba(255,255,255,.12)"/>
              <rect x="378" y="448" width="118" height="9" rx="4.5" fill="rgba(255,255,255,.28)"/>
              <rect x="378" y="464" width="68.44" height="5" rx="2.5" fill="rgba(255,255,255,.12)"/>
        
              <rect x="378" y="540" width="78" height="22" rx="11" fill="#b7f36b" opacity=".92"/>
              <text x="417" y="555" class="badge">gate</text>
        <rect x="608" y="292" width="220" height="286" rx="10" fill="#111a17" stroke="rgba(255,255,255,.14)" stroke-width="1"/>
        <text x="626" y="322" class="kicker">verify</text>
        
              <rect x="626" y="346" width="158" height="9" rx="4.5" fill="#39c6ad"/>
              <rect x="626" y="362" width="91.64" height="5" rx="2.5" fill="rgba(255,255,255,.12)"/>
              <rect x="626" y="380" width="130" height="9" rx="4.5" fill="rgba(255,255,255,.28)"/>
              <rect x="626" y="396" width="75.39999999999999" height="5" rx="2.5" fill="rgba(255,255,255,.12)"/>
              <rect x="626" y="414" width="174" height="9" rx="4.5" fill="rgba(255,255,255,.28)"/>
              <rect x="626" y="430" width="100.91999999999999" height="5" rx="2.5" fill="rgba(255,255,255,.12)"/>
              <rect x="626" y="448" width="142" height="9" rx="4.5" fill="rgba(255,255,255,.28)"/>
              <rect x="626" y="464" width="82.36" height="5" rx="2.5" fill="rgba(255,255,255,.12)"/>
        
              <rect x="626" y="540" width="78" height="22" rx="11" fill="#b7f36b" opacity=".92"/>
              <text x="665" y="555" class="badge">proof</text>
        <rect x="856" y="292" width="220" height="286" rx="10" fill="#111a17" stroke="rgba(255,255,255,.14)" stroke-width="1"/>
        <text x="874" y="322" class="kicker">archive</text>
        
              <rect x="874" y="346" width="168" height="9" rx="4.5" fill="#f2d35f"/>
              <rect x="874" y="362" width="97.44" height="5" rx="2.5" fill="rgba(255,255,255,.12)"/>
              <rect x="874" y="380" width="148" height="9" rx="4.5" fill="rgba(255,255,255,.28)"/>
              <rect x="874" y="396" width="85.83999999999999" height="5" rx="2.5" fill="rgba(255,255,255,.12)"/>
              <rect x="874" y="414" width="112" height="9" rx="4.5" fill="rgba(255,255,255,.28)"/>
              <rect x="874" y="430" width="64.96" height="5" rx="2.5" fill="rgba(255,255,255,.12)"/>
              <rect x="874" y="448" width="162" height="9" rx="4.5" fill="rgba(255,255,255,.28)"/>
              <rect x="874" y="464" width="93.96" height="5" rx="2.5" fill="rgba(255,255,255,.12)"/>
        
              <rect x="874" y="540" width="78" height="22" rx="11" fill="#b7f36b" opacity=".92"/>
              <text x="913" y="555" class="badge">record</text>
    
      <text x="112" y="618" class="label">Operational work should be legible, reversible, and owned by a human.</text>
  </g>
</svg>
