<?xml version="1.0" encoding="UTF-8"?>
<svg xmlns="http://www.w3.org/2000/svg" width="1200" height="760" viewBox="0 0 1200 760" role="img" aria-labelledby="estimateengine-title estimateengine-desc">
  <title id="estimateengine-title">EstimateEngine public-safe interface mockup</title>
  <desc id="estimateengine-desc">A sanitized visual mockup with private data removed.</desc>
  <defs>
    <linearGradient id="estimateengine-bg" x1="0" x2="1" y1="0" y2="1">
      <stop offset="0" stop-color="#101510"/>
      <stop offset=".52" stop-color="#182017"/>
      <stop offset="1" stop-color="#26311c"/>
    </linearGradient>
    <radialGradient id="estimateengine-glow" cx=".76" cy=".14" r=".9">
      <stop offset="0" stop-color="#b7f36b" stop-opacity=".5"/>
      <stop offset=".42" stop-color="#39c6ad" stop-opacity=".18"/>
      <stop offset="1" stop-color="#000" stop-opacity="0"/>
    </radialGradient>
    <filter id="estimateengine-shadow" x="-20%" y="-20%" width="140%" height="140%">
      <feDropShadow dx="0" dy="18" stdDeviation="22" flood-color="#000" flood-opacity=".32"/>
    </filter>
    <style>
      .title { font: 800 42px Inter, Arial, sans-serif; fill: #f7fff7; letter-spacing: 0; }
      .sub { font: 500 18px Inter, Arial, sans-serif; fill: rgba(247,255,247,.72); letter-spacing: 0; }
      .nav { font: 700 13px Inter, Arial, sans-serif; fill: rgba(247,255,247,.56); letter-spacing: .06em; }
      .kicker { font: 800 13px Inter, Arial, sans-serif; fill: rgba(247,255,247,.68); letter-spacing: .08em; text-transform: uppercase; }
      .badge { font: 800 10px Inter, Arial, sans-serif; fill: #07110d; text-anchor: middle; letter-spacing: .04em; }
      .tiny { font: 700 11px Inter, Arial, sans-serif; fill: rgba(247,255,247,.5); letter-spacing: .06em; }
      .label { font: 700 15px Inter, Arial, sans-serif; fill: rgba(247,255,247,.76); letter-spacing: 0; }
    </style>
  </defs>
  <rect width="1200" height="760" fill="url(#estimateengine-bg)"/>
  <rect width="1200" height="760" fill="url(#estimateengine-glow)"/>
  <path d="M-80 690 C170 560 266 738 487 601 C661 494 765 562 918 434 C1054 321 1135 360 1260 260" fill="none" stroke="#b7f36b" stroke-width="2" opacity=".32"/>
  <path d="M-40 118 C199 214 314 56 516 180 C699 292 813 152 1020 206 C1114 231 1161 272 1240 236" fill="none" stroke="#39c6ad" stroke-width="2" opacity=".26"/>
  <g filter="url(#estimateengine-shadow)">
    <rect x="72" y="82" width="1056" height="596" rx="18" fill="rgba(4,10,8,.74)" stroke="rgba(255,255,255,.18)" stroke-width="1.2"/>
    <rect x="72" y="82" width="1056" height="58" rx="18" fill="rgba(255,255,255,.08)"/>
    <circle cx="104" cy="111" r="7" fill="#f06a5b"/>
    <circle cx="130" cy="111" r="7" fill="#f4c95d"/>
    <circle cx="156" cy="111" r="7" fill="#79d279"/>
    <text x="190" y="116" class="nav">PUBLIC MOCK / PRIVATE DATA REDACTED</text>
    <text x="990" y="116" class="tiny">STATIC PREVIEW</text>
    <text x="112" y="206" class="title">EstimateEngine</text>
    <text x="114" y="240" class="sub">Human-reviewed operating workflow from messy inputs to ready packets.</text>
    
        <rect x="112" y="292" width="278" height="286" rx="10" fill="#111a17" stroke="rgba(255,255,255,.14)" stroke-width="1"/>
        <text x="130" y="322" class="kicker">intake</text>
        
              <rect x="130" y="346" width="190" height="9" rx="4.5" fill="#b7f36b"/>
              <rect x="130" y="362" width="110.19999999999999" height="5" rx="2.5" fill="rgba(255,255,255,.12)"/>
              <rect x="130" y="380" width="236" height="9" rx="4.5" fill="rgba(255,255,255,.28)"/>
              <rect x="130" y="396" width="136.88" height="5" rx="2.5" fill="rgba(255,255,255,.12)"/>
              <rect x="130" y="414" width="164" height="9" rx="4.5" fill="rgba(255,255,255,.28)"/>
              <rect x="130" y="430" width="95.11999999999999" height="5" rx="2.5" fill="rgba(255,255,255,.12)"/>
              <rect x="130" y="448" width="214" height="9" rx="4.5" fill="rgba(255,255,255,.28)"/>
              <rect x="130" y="464" width="124.11999999999999" height="5" rx="2.5" fill="rgba(255,255,255,.12)"/>
        
              <rect x="130" y="540" width="78" height="22" rx="11" fill="#b7f36b" opacity=".92"/>
              <text x="169" y="555" class="badge">review</text>
              <rect x="224" y="540" width="78" height="22" rx="11" fill="#b7f36b" opacity=".92"/>
              <text x="263" y="555" class="badge">source</text>
        <rect x="424" y="292" width="304" height="286" rx="10" fill="#111a17" stroke="rgba(255,255,255,.14)" stroke-width="1"/>
        <text x="442" y="322" class="kicker">reasoning</text>
        
              <rect x="442" y="346" width="210" height="9" rx="4.5" fill="#39c6ad"/>
              <rect x="442" y="362" width="121.8" height="5" rx="2.5" fill="rgba(255,255,255,.12)"/>
              <rect x="442" y="380" width="246" height="9" rx="4.5" fill="rgba(255,255,255,.28)"/>
              <rect x="442" y="396" width="142.67999999999998" height="5" rx="2.5" fill="rgba(255,255,255,.12)"/>
              <rect x="442" y="414" width="188" height="9" rx="4.5" fill="rgba(255,255,255,.28)"/>
              <rect x="442" y="430" width="109.03999999999999" height="5" rx="2.5" fill="rgba(255,255,255,.12)"/>
              <rect x="442" y="448" width="228" height="9" rx="4.5" fill="rgba(255,255,255,.28)"/>
              <rect x="442" y="464" width="132.23999999999998" height="5" rx="2.5" fill="rgba(255,255,255,.12)"/>
        
              <rect x="442" y="540" width="78" height="22" rx="11" fill="#b7f36b" opacity=".92"/>
              <text x="481" y="555" class="badge">options</text>
              <rect x="536" y="540" width="78" height="22" rx="11" fill="#b7f36b" opacity=".92"/>
              <text x="575" y="555" class="badge">audit</text>
        <rect x="762" y="292" width="314" height="286" rx="10" fill="#111a17" stroke="rgba(255,255,255,.14)" stroke-width="1"/>
        <text x="780" y="322" class="kicker">ready packet</text>
        
              <rect x="780" y="346" width="236" height="9" rx="4.5" fill="#f2d35f"/>
              <rect x="780" y="362" width="136.88" height="5" rx="2.5" fill="rgba(255,255,255,.12)"/>
              <rect x="780" y="380" width="204" height="9" rx="4.5" fill="rgba(255,255,255,.28)"/>
              <rect x="780" y="396" width="118.32" height="5" rx="2.5" fill="rgba(255,255,255,.12)"/>
              <rect x="780" y="414" width="252" height="9" rx="4.5" fill="rgba(255,255,255,.28)"/>
              <rect x="780" y="430" width="146.16" height="5" rx="2.5" fill="rgba(255,255,255,.12)"/>
              <rect x="780" y="448" width="186" height="9" rx="4.5" fill="rgba(255,255,255,.28)"/>
              <rect x="780" y="464" width="107.88" height="5" rx="2.5" fill="rgba(255,255,255,.12)"/>
        
              <rect x="780" y="540" width="78" height="22" rx="11" fill="#b7f36b" opacity=".92"/>
              <text x="819" y="555" class="badge">verify</text>
              <rect x="874" y="540" width="78" height="22" rx="11" fill="#b7f36b" opacity=".92"/>
              <text x="913" y="555" class="badge">handoff</text>
    
      <path d="M390 430 C414 430 407 430 424 430" stroke="#b7f36b" stroke-width="4" stroke-linecap="round" opacity=".75"/>
      <path d="M728 430 C750 430 744 430 762 430" stroke="#39c6ad" stroke-width="4" stroke-linecap="round" opacity=".75"/>
      <text x="112" y="618" class="label">Built to preserve judgement, provenance, and review gates.</text>
  </g>
</svg>
