<?xml version="1.0" encoding="UTF-8"?>
<svg xmlns="http://www.w3.org/2000/svg" width="1200" height="760" viewBox="0 0 1200 760" role="img" aria-labelledby="whalepasta-title whalepasta-desc">
  <title id="whalepasta-title">WhalePasta future-vision public mockup</title>
  <desc id="whalepasta-desc">A public-safe animated future-vision mockup. Private data, credentials, addresses, customer details, and live operating strategy are omitted.</desc>
  <defs>
    <linearGradient id="whalepasta-bg" x1="0" x2="1" y1="0" y2="1">
      <stop offset="0" stop-color="#061114"/>
      <stop offset=".56" stop-color="#0c1a1c"/>
      <stop offset="1" stop-color="#1e2417"/>
    </linearGradient>
    <radialGradient id="whalepasta-glow" cx=".74" cy=".2" r=".86">
      <stop offset="0" stop-color="#66e2ff" stop-opacity=".42"/>
      <stop offset=".38" stop-color="#f58d42" stop-opacity=".16"/>
      <stop offset="1" stop-color="#000" stop-opacity="0"/>
    </radialGradient>
    <linearGradient id="whalepasta-scan" x1="0" x2="1" y1="0" y2="0">
      <stop offset="0" stop-color="#fff" stop-opacity="0"/>
      <stop offset=".5" stop-color="#66e2ff" stop-opacity=".2"/>
      <stop offset="1" stop-color="#fff" stop-opacity="0"/>
    </linearGradient>
    <filter id="whalepasta-shadow" x="-20%" y="-20%" width="140%" height="140%">
      <feDropShadow dx="0" dy="22" stdDeviation="24" flood-color="#000" flood-opacity=".34"/>
    </filter>
    <clipPath id="whalepasta-clip">
      <rect x="64" y="74" width="1072" height="612" rx="20"/>
    </clipPath>
    <style>
      .title { font: 900 31px Arial, sans-serif; fill: #f7fff7; letter-spacing: 0; }
      .sub { font: 600 15px Arial, sans-serif; fill: rgba(247,255,247,.7); letter-spacing: 0; }
      .nav { font: 800 12px Arial, sans-serif; fill: rgba(247,255,247,.58); letter-spacing: .08em; }
      .rail-label, .slide-step, .card-kicker, .slide-status { font: 900 12px Arial, sans-serif; letter-spacing: .1em; text-transform: uppercase; }
      .rail-label, .slide-step, .slide-status { fill: #66e2ff; }
      .rail-copy, .tab-note, .slide-copy, .card-line, .metric-label, .footer-line { font: 600 12px Arial, sans-serif; fill: rgba(247,255,247,.68); letter-spacing: 0; }
      .tab-index { font: 900 13px Arial, sans-serif; fill: #66e2ff; }
      .tab-title { font: 900 13px Arial, sans-serif; fill: #f7fff7; letter-spacing: 0; }
      .slide-title { font: 900 25px Arial, sans-serif; fill: #f7fff7; letter-spacing: 0; }
      .card-kicker { fill: #f58d42; }
      .card-title { font: 900 16px Arial, sans-serif; fill: #f7fff7; letter-spacing: 0; }
      .node-label { font: 800 11px Arial, sans-serif; fill: rgba(247,255,247,.72); text-anchor: middle; letter-spacing: 0; }
      .slide { opacity: 0; transform: translateX(18px); animation-duration: 18s; animation-iteration-count: infinite; animation-timing-function: ease-in-out; }
      .slide-0 { animation-name: showSlide0; }
      .slide-1 { animation-name: showSlide1; }
      .slide-2 { animation-name: showSlide2; }
      .rail-tab { opacity: .54; animation-duration: 18s; animation-iteration-count: infinite; animation-timing-function: ease-in-out; }
      .rail-tab-0 { animation-name: activeTab0; }
      .rail-tab-1 { animation-name: activeTab1; }
      .rail-tab-2 { animation-name: activeTab2; }
      .tab-signal { opacity: .36; animation-duration: 18s; animation-iteration-count: infinite; }
      .rail-tab-0 .tab-signal { animation-name: activeTab0; }
      .rail-tab-1 .tab-signal { animation-name: activeTab1; }
      .rail-tab-2 .tab-signal { animation-name: activeTab2; }
      .vision-card { animation: cardLift 5.8s ease-in-out infinite; transform-box: fill-box; transform-origin: center; }
      .vision-card-1 { animation-delay: -.8s; }
      .vision-card-2 { animation-delay: -1.6s; }
      .bar { animation: barPulse 4.6s ease-in-out infinite; transform-box: fill-box; transform-origin: left center; }
      .bar-1 { animation-delay: -.7s; }
      .bar-2 { animation-delay: -1.4s; }
      .route-line { stroke-dasharray: 26 18; animation: routeFlow 7.6s linear infinite; }
      .route-node { animation: nodePulse 3.4s ease-in-out infinite; transform-box: fill-box; transform-origin: center; }
      .route-node-1 { animation-delay: -.8s; }
      .route-node-2 { animation-delay: -1.6s; }
      .route-node-3 { animation-delay: -2.4s; }
      .ambient { stroke-dasharray: 18 26; animation: routeFlow 22s linear infinite; }
      .scan { animation: scanPass 10s ease-in-out infinite; transform-box: fill-box; transform-origin: center; }
      @keyframes showSlide0 {
        0%, 27% { opacity: 1; transform: translateX(0); }
        31%, 100% { opacity: 0; transform: translateX(-18px); }
      }
      @keyframes showSlide1 {
        0%, 30% { opacity: 0; transform: translateX(18px); }
        34%, 60% { opacity: 1; transform: translateX(0); }
        64%, 100% { opacity: 0; transform: translateX(-18px); }
      }
      @keyframes showSlide2 {
        0%, 63% { opacity: 0; transform: translateX(18px); }
        67%, 94% { opacity: 1; transform: translateX(0); }
        98%, 100% { opacity: 0; transform: translateX(-18px); }
      }
      @keyframes activeTab0 {
        0%, 27% { opacity: 1; }
        31%, 100% { opacity: .42; }
      }
      @keyframes activeTab1 {
        0%, 30% { opacity: .42; }
        34%, 60% { opacity: 1; }
        64%, 100% { opacity: .42; }
      }
      @keyframes activeTab2 {
        0%, 63% { opacity: .42; }
        67%, 94% { opacity: 1; }
        98%, 100% { opacity: .42; }
      }
      @keyframes cardLift {
        0%, 100% { transform: translateY(0); opacity: .9; }
        50% { transform: translateY(-3px); opacity: 1; }
      }
      @keyframes barPulse {
        0%, 100% { transform: scaleX(.78); opacity: .58; }
        46% { transform: scaleX(1); opacity: .98; }
      }
      @keyframes routeFlow { to { stroke-dashoffset: -240; } }
      @keyframes nodePulse {
        0%, 100% { transform: scale(1); opacity: .78; }
        50% { transform: scale(1.24); opacity: 1; }
      }
      @keyframes scanPass {
        0%, 14% { transform: translateX(-1240px) skewX(-12deg); opacity: 0; }
        28% { opacity: .74; }
        48%, 100% { transform: translateX(1240px) skewX(-12deg); opacity: 0; }
      }
      @media (prefers-reduced-motion: reduce) {
        * { animation: none !important; }
        .slide { opacity: 0 !important; transform: none !important; }
        .slide-0 { opacity: 1 !important; }
        .rail-tab { opacity: .54 !important; }
        .rail-tab-0 { opacity: 1 !important; }
      }
    </style>
  </defs>
  <rect width="1200" height="760" fill="url(#whalepasta-bg)"/>
  <rect width="1200" height="760" fill="url(#whalepasta-glow)"/>
  <path class="ambient" d="M-60 624 C210 496 314 700 530 548 C722 414 808 536 980 384 C1116 264 1172 296 1260 218" fill="none" stroke="#66e2ff" stroke-width="2" opacity=".3"/>
  <path class="ambient" d="M-42 160 C180 242 302 96 492 188 C708 292 818 118 1052 198 C1130 224 1168 270 1250 232" fill="none" stroke="#f58d42" stroke-width="2" opacity=".24"/>
  <g filter="url(#whalepasta-shadow)">
    <rect x="64" y="74" width="1072" height="612" rx="20" fill="rgba(3,7,5,.78)" stroke="rgba(247,255,247,.18)" stroke-width="1.2"/>
    <rect x="64" y="74" width="1072" height="60" rx="20" fill="rgba(247,255,247,.07)"/>
    <circle cx="96" cy="104" r="7" fill="#e66a72"/>
    <circle cx="122" cy="104" r="7" fill="#f2d35f"/>
    <circle cx="148" cy="104" r="7" fill="#66e2ff"/>
    <text x="184" y="109" class="nav">PUBLIC FUTURE MOCK / PRIVATE DETAILS OMITTED</text>
    <text x="930" y="109" class="nav">VISION SEQUENCE</text>
    <line x1="326" y1="156" x2="326" y2="654" stroke="rgba(247,255,247,.14)" stroke-width="1"/>
    <text x="112" y="202" class="title">WhalePasta</text>
    <text x="114" y="238" class="sub">Monitoring lab.</text>
<text x="114" y="256" class="sub">Signals, limits, stop rules.</text>
    <text x="112" y="270" class="rail-label">Future path</text>

      <g class="rail-tab rail-tab-0">
        <rect x="112" y="286" width="192" height="52" rx="8" fill="rgba(3,8,6,.5)" stroke="rgba(247,255,247,.14)"/>
        <rect class="tab-signal" x="112" y="286" width="4" height="52" rx="2" fill="#66e2ff"/>
        <text x="128" y="307" class="tab-index">01</text>
        <text x="166" y="307" class="tab-title">Signal</text>
        <text x="166" y="328" class="tab-note">watch first</text>
      </g>

      <g class="rail-tab rail-tab-1">
        <rect x="112" y="360" width="192" height="52" rx="8" fill="rgba(3,8,6,.5)" stroke="rgba(247,255,247,.14)"/>
        <rect class="tab-signal" x="112" y="360" width="4" height="52" rx="2" fill="#66e2ff"/>
        <text x="128" y="381" class="tab-index">02</text>
        <text x="166" y="381" class="tab-title">Risk</text>
        <text x="166" y="402" class="tab-note">limits visible</text>
      </g>

      <g class="rail-tab rail-tab-2">
        <rect x="112" y="434" width="192" height="52" rx="8" fill="rgba(3,8,6,.5)" stroke="rgba(247,255,247,.14)"/>
        <rect class="tab-signal" x="112" y="434" width="4" height="52" rx="2" fill="#66e2ff"/>
        <text x="128" y="455" class="tab-index">03</text>
        <text x="166" y="455" class="tab-title">Explain</text>
        <text x="166" y="476" class="tab-note">why visible</text>
      </g>
    <text x="112" y="574" class="rail-label">Public boundary</text>
    <text x="114" y="602" class="rail-copy">Sanitized UI direction.</text>
<text x="114" y="620" class="rail-copy">No PII, credentials, addresses,</text>
<text x="114" y="638" class="rail-copy">live strategy, or client data.</text>

    <g class="slide slide-0">
      <text x="376" y="216" class="slide-step">01 / Signal</text>
      <text x="376" y="254" class="slide-title">Signals earn trust before scale.</text>
      <text x="378" y="282" class="slide-copy">Future screens separate candidate signal, market context, and canary behavior.</text>
      <text x="974" y="224" class="slide-status">SHADOW LANE</text>

    <g class="vision-card vision-card-0">
      <rect x="376" y="304" width="216" height="176" rx="12" fill="rgba(3,8,6,.64)" stroke="rgba(247,255,247,.16)" stroke-width="1"/>
      <rect x="376" y="304" width="216" height="34" rx="12" fill="rgba(247,255,247,.06)"/>
      <text x="392" y="327" class="card-kicker">candidate</text>
      <text x="392" y="366" class="card-title">Cohort view</text>
      <text x="392" y="390" class="card-line">Ranked signals with</text>
<text x="392" y="409" class="card-line">cooldown context.</text>

        <text x="392" y="411" class="metric-label">Signal</text>
        <rect class="bar bar-0" x="392" y="420" width="150" height="8" rx="4" fill="#66e2ff" opacity=".92"/>
        <rect x="392" y="433" width="78" height="4" rx="2" fill="rgba(247,255,247,.14)"/>

        <text x="392" y="442" class="metric-label">Review</text>
        <rect class="bar bar-1" x="392" y="451" width="186" height="8" rx="4" fill="#f58d42" opacity=".58"/>
        <rect x="392" y="464" width="97" height="4" rx="2" fill="rgba(247,255,247,.14)"/>
    </g>

    <g class="vision-card vision-card-1">
      <rect x="622" y="304" width="216" height="176" rx="12" fill="rgba(3,8,6,.64)" stroke="rgba(247,255,247,.16)" stroke-width="1"/>
      <rect x="622" y="304" width="216" height="34" rx="12" fill="rgba(247,255,247,.06)"/>
      <text x="638" y="327" class="card-kicker">market</text>
      <text x="638" y="366" class="card-title">Depth check</text>
      <text x="638" y="390" class="card-line">Liquidity, spread,</text>
<text x="638" y="409" class="card-line">and noise flags.</text>

        <text x="638" y="411" class="metric-label">Source</text>
        <rect class="bar bar-0" x="638" y="420" width="174" height="8" rx="4" fill="#66e2ff" opacity=".92"/>
        <rect x="638" y="433" width="90" height="4" rx="2" fill="rgba(247,255,247,.14)"/>

        <text x="638" y="442" class="metric-label">Risk</text>
        <rect class="bar bar-1" x="638" y="451" width="144" height="8" rx="4" fill="#f58d42" opacity=".58"/>
        <rect x="638" y="464" width="75" height="4" rx="2" fill="rgba(247,255,247,.14)"/>
    </g>

    <g class="vision-card vision-card-2">
      <rect x="868" y="304" width="216" height="176" rx="12" fill="rgba(3,8,6,.64)" stroke="rgba(247,255,247,.16)" stroke-width="1"/>
      <rect x="868" y="304" width="216" height="34" rx="12" fill="rgba(247,255,247,.06)"/>
      <text x="884" y="327" class="card-kicker">canary</text>
      <text x="884" y="366" class="card-title">Tiny proof</text>
      <text x="884" y="390" class="card-line">Behavior observed</text>
<text x="884" y="409" class="card-line">before commitment.</text>

        <text x="884" y="411" class="metric-label">Ready</text>
        <rect class="bar bar-0" x="884" y="420" width="200" height="8" rx="4" fill="#66e2ff" opacity=".92"/>
        <rect x="884" y="433" width="104" height="4" rx="2" fill="rgba(247,255,247,.14)"/>

        <text x="884" y="442" class="metric-label">Trace</text>
        <rect class="bar bar-1" x="884" y="451" width="158" height="8" rx="4" fill="#f58d42" opacity=".58"/>
        <rect x="884" y="464" width="82" height="4" rx="2" fill="rgba(247,255,247,.14)"/>
    </g>

    <g class="route-diagram">
      <path class="route-line" d="M420 570 C500 532 564 624 598 586 S742 548 776 570 S920 618 954 586" fill="none" stroke="#66e2ff" stroke-width="4" stroke-linecap="round"/>

        <circle class="route-node route-node-0" cx="420" cy="570" r="13" fill="#66e2ff"/>
        <text x="420" y="604" class="node-label">cohort</text>

        <circle class="route-node route-node-1" cx="598" cy="586" r="9" fill="#f58d42"/>
        <text x="598" y="620" class="node-label">market</text>

        <circle class="route-node route-node-2" cx="776" cy="570" r="9" fill="#f2d35f"/>
        <text x="776" y="604" class="node-label">canary</text>

        <circle class="route-node route-node-3" cx="954" cy="586" r="9" fill="#f58d42"/>
        <text x="954" y="620" class="node-label">live</text>
      <text x="376" y="666" class="footer-line">Research, paper, canary, and live lanes stay visually distinct.</text>
    </g>
    </g>

    <g class="slide slide-1">
      <text x="376" y="216" class="slide-step">02 / Risk</text>
      <text x="376" y="254" class="slide-title">The stop controls are first-class.</text>
      <text x="378" y="282" class="slide-copy">The vision is less auto-pilot, more instrumented lab with clear brakes.</text>
      <text x="974" y="224" class="slide-status">CAPS ACTIVE</text>

    <g class="vision-card vision-card-0">
      <rect x="376" y="304" width="216" height="176" rx="12" fill="rgba(3,8,6,.64)" stroke="rgba(247,255,247,.16)" stroke-width="1"/>
      <rect x="376" y="304" width="216" height="34" rx="12" fill="rgba(247,255,247,.06)"/>
      <text x="392" y="327" class="card-kicker">exposure</text>
      <text x="392" y="366" class="card-title">Limit stack</text>
      <text x="392" y="390" class="card-line">Per market, cohort,</text>
<text x="392" y="409" class="card-line">and operator caps.</text>

        <text x="392" y="411" class="metric-label">Source</text>
        <rect class="bar bar-0" x="392" y="420" width="174" height="8" rx="4" fill="#66e2ff" opacity=".92"/>
        <rect x="392" y="433" width="90" height="4" rx="2" fill="rgba(247,255,247,.14)"/>

        <text x="392" y="442" class="metric-label">Risk</text>
        <rect class="bar bar-1" x="392" y="451" width="144" height="8" rx="4" fill="#f58d42" opacity=".58"/>
        <rect x="392" y="464" width="75" height="4" rx="2" fill="rgba(247,255,247,.14)"/>
    </g>

    <g class="vision-card vision-card-1">
      <rect x="622" y="304" width="216" height="176" rx="12" fill="rgba(3,8,6,.64)" stroke="rgba(247,255,247,.16)" stroke-width="1"/>
      <rect x="622" y="304" width="216" height="34" rx="12" fill="rgba(247,255,247,.06)"/>
      <text x="638" y="327" class="card-kicker">ledger</text>
      <text x="638" y="366" class="card-title">Reconcile</text>
      <text x="638" y="390" class="card-line">Position truth vs</text>
<text x="638" y="409" class="card-line">expected state.</text>

        <text x="638" y="411" class="metric-label">Ready</text>
        <rect class="bar bar-0" x="638" y="420" width="200" height="8" rx="4" fill="#66e2ff" opacity=".92"/>
        <rect x="638" y="433" width="104" height="4" rx="2" fill="rgba(247,255,247,.14)"/>

        <text x="638" y="442" class="metric-label">Trace</text>
        <rect class="bar bar-1" x="638" y="451" width="158" height="8" rx="4" fill="#f58d42" opacity=".58"/>
        <rect x="638" y="464" width="82" height="4" rx="2" fill="rgba(247,255,247,.14)"/>
    </g>

    <g class="vision-card vision-card-2">
      <rect x="868" y="304" width="216" height="176" rx="12" fill="rgba(3,8,6,.64)" stroke="rgba(247,255,247,.16)" stroke-width="1"/>
      <rect x="868" y="304" width="216" height="34" rx="12" fill="rgba(247,255,247,.06)"/>
      <text x="884" y="327" class="card-kicker">halt</text>
      <text x="884" y="366" class="card-title">Stop rules</text>
      <text x="884" y="390" class="card-line">Bad data, thin books,</text>
<text x="884" y="409" class="card-line">or stale heartbeat.</text>

        <text x="884" y="411" class="metric-label">Signal</text>
        <rect class="bar bar-0" x="884" y="420" width="150" height="8" rx="4" fill="#66e2ff" opacity=".92"/>
        <rect x="884" y="433" width="78" height="4" rx="2" fill="rgba(247,255,247,.14)"/>

        <text x="884" y="442" class="metric-label">Review</text>
        <rect class="bar bar-1" x="884" y="451" width="186" height="8" rx="4" fill="#f58d42" opacity=".58"/>
        <rect x="884" y="464" width="97" height="4" rx="2" fill="rgba(247,255,247,.14)"/>
    </g>

    <g class="route-diagram">
      <path class="route-line" d="M420 570 C500 532 564 624 598 586 S742 548 776 570 S920 618 954 586" fill="none" stroke="#66e2ff" stroke-width="4" stroke-linecap="round"/>

        <circle class="route-node route-node-0" cx="420" cy="570" r="9" fill="#f2d35f"/>
        <text x="420" y="604" class="node-label">cap</text>

        <circle class="route-node route-node-1" cx="598" cy="586" r="13" fill="#66e2ff"/>
        <text x="598" y="620" class="node-label">reconcile</text>

        <circle class="route-node route-node-2" cx="776" cy="570" r="9" fill="#f2d35f"/>
        <text x="776" y="604" class="node-label">redeem</text>

        <circle class="route-node route-node-3" cx="954" cy="586" r="9" fill="#f58d42"/>
        <text x="954" y="620" class="node-label">stop</text>
      <text x="376" y="666" class="footer-line">Caps, reconciliation, redemption, and rollback are part of the product surface.</text>
    </g>
    </g>

    <g class="slide slide-2">
      <text x="376" y="216" class="slide-step">03 / Explain</text>
      <text x="376" y="254" class="slide-title">Every automated action needs a reason trail.</text>
      <text x="378" y="282" class="slide-copy">The future view makes attribution, confidence, and operator override legible.</text>
      <text x="974" y="224" class="slide-status">AUDIT TRAIL</text>

    <g class="vision-card vision-card-0">
      <rect x="376" y="304" width="216" height="176" rx="12" fill="rgba(3,8,6,.64)" stroke="rgba(247,255,247,.16)" stroke-width="1"/>
      <rect x="376" y="304" width="216" height="34" rx="12" fill="rgba(247,255,247,.06)"/>
      <text x="392" y="327" class="card-kicker">why</text>
      <text x="392" y="366" class="card-title">Decision record</text>
      <text x="392" y="390" class="card-line">Trigger, data age,</text>
<text x="392" y="409" class="card-line">confidence, override.</text>

        <text x="392" y="411" class="metric-label">Ready</text>
        <rect class="bar bar-0" x="392" y="420" width="200" height="8" rx="4" fill="#66e2ff" opacity=".92"/>
        <rect x="392" y="433" width="104" height="4" rx="2" fill="rgba(247,255,247,.14)"/>

        <text x="392" y="442" class="metric-label">Trace</text>
        <rect class="bar bar-1" x="392" y="451" width="158" height="8" rx="4" fill="#f58d42" opacity=".58"/>
        <rect x="392" y="464" width="82" height="4" rx="2" fill="rgba(247,255,247,.14)"/>
    </g>

    <g class="vision-card vision-card-1">
      <rect x="622" y="304" width="216" height="176" rx="12" fill="rgba(3,8,6,.64)" stroke="rgba(247,255,247,.16)" stroke-width="1"/>
      <rect x="622" y="304" width="216" height="34" rx="12" fill="rgba(247,255,247,.06)"/>
      <text x="638" y="327" class="card-kicker">what</text>
      <text x="638" y="366" class="card-title">Outcome map</text>
      <text x="638" y="390" class="card-line">PnL attribution and</text>
<text x="638" y="409" class="card-line">failure mode notes.</text>

        <text x="638" y="411" class="metric-label">Signal</text>
        <rect class="bar bar-0" x="638" y="420" width="150" height="8" rx="4" fill="#66e2ff" opacity=".92"/>
        <rect x="638" y="433" width="78" height="4" rx="2" fill="rgba(247,255,247,.14)"/>

        <text x="638" y="442" class="metric-label">Review</text>
        <rect class="bar bar-1" x="638" y="451" width="186" height="8" rx="4" fill="#f58d42" opacity=".58"/>
        <rect x="638" y="464" width="97" height="4" rx="2" fill="rgba(247,255,247,.14)"/>
    </g>

    <g class="vision-card vision-card-2">
      <rect x="868" y="304" width="216" height="176" rx="12" fill="rgba(3,8,6,.64)" stroke="rgba(247,255,247,.16)" stroke-width="1"/>
      <rect x="868" y="304" width="216" height="34" rx="12" fill="rgba(247,255,247,.06)"/>
      <text x="884" y="327" class="card-kicker">next</text>
      <text x="884" y="366" class="card-title">Research loop</text>
      <text x="884" y="390" class="card-line">What to demote, test,</text>
<text x="884" y="409" class="card-line">or watch again.</text>

        <text x="884" y="411" class="metric-label">Source</text>
        <rect class="bar bar-0" x="884" y="420" width="174" height="8" rx="4" fill="#66e2ff" opacity=".92"/>
        <rect x="884" y="433" width="90" height="4" rx="2" fill="rgba(247,255,247,.14)"/>

        <text x="884" y="442" class="metric-label">Risk</text>
        <rect class="bar bar-1" x="884" y="451" width="144" height="8" rx="4" fill="#f58d42" opacity=".58"/>
        <rect x="884" y="464" width="75" height="4" rx="2" fill="rgba(247,255,247,.14)"/>
    </g>

    <g class="route-diagram">
      <path class="route-line" d="M420 570 C500 532 564 624 598 586 S742 548 776 570 S920 618 954 586" fill="none" stroke="#66e2ff" stroke-width="4" stroke-linecap="round"/>

        <circle class="route-node route-node-0" cx="420" cy="570" r="9" fill="#f2d35f"/>
        <text x="420" y="604" class="node-label">decision</text>

        <circle class="route-node route-node-1" cx="598" cy="586" r="9" fill="#f58d42"/>
        <text x="598" y="620" class="node-label">fill</text>

        <circle class="route-node route-node-2" cx="776" cy="570" r="13" fill="#66e2ff"/>
        <text x="776" y="604" class="node-label">result</text>

        <circle class="route-node route-node-3" cx="954" cy="586" r="9" fill="#f58d42"/>
        <text x="954" y="620" class="node-label">learn</text>
      <text x="376" y="666" class="footer-line">No identifiers, balances, live strategy, or wallet details belong in the public mock.</text>
    </g>
    </g>
    <g clip-path="url(#whalepasta-clip)" pointer-events="none">
      <rect class="scan" x="-150" y="74" width="176" height="612" fill="url(#whalepasta-scan)" opacity=".7"/>
    </g>
  </g>
</svg>
